<svg width="984" height="276" viewBox="0 0 984 276" fill="none" xmlns="http://www.w3.org/2000/svg">
<g clip-path="url(#clip0_119_255)">
<path d="M108.63 115.46V2.18018H132.3V96.6302H167.78V115.46H108.63Z" fill="#1D1D1B"/>
<path d="M294.02 2.18018H270.32V115.46H294.02V2.18018Z" fill="#1D1D1B"/>
<path d="M307.67 115.46V2.18018H339.66L369.82 80.6202H370.13V2.18018H392.25V115.46H361.02L330.11 32.6102H329.79V115.46H307.67Z" fill="#1D1D1B"/>
<path d="M70.89 72.9402H46.29L69.81 23.9902L70.86 23.9702L70.89 72.9302V72.9402ZM58.41 2.18018L0 115.46H25.7L37.86 90.3802H70.79L70.75 115.46H94.5L94.45 2.18018H58.41Z" fill="#1D1D1B"/>
<path d="M206.78 72.9402L217.64 23.9902H217.92L229.38 72.9402H206.78ZM203.65 2.18018L172.28 115.46H195.65L202.08 90.3802H234.4L240.69 115.46H265.63L234.88 2.18018H203.65Z" fill="#1D1D1B"/>
<path d="M437.42 72.9399H412.79L436.33 23.9899H437.38L437.42 72.9399ZM424.95 2.18994L366.52 115.46H392.25L404.36 90.3399H437.29L437.27 115.46H461.01L460.96 2.18994H424.94H424.95Z" fill="#1D1D1B"/>
<path d="M473.71 115.3V2.56982H532.24V19.8898H497.3V48.8198H528.33V66.1098H497.3V115.3H473.71Z" fill="#1D1D1B"/>
<path d="M541.88 115.3V2.56982H600.43V19.8898H565.41V48.8198H596.46V66.1098H565.41V115.3H541.88Z" fill="#1D1D1B"/>
<path d="M609.31 115.3V2.56982H632.89V96.5698H668.21V115.3H609.31Z" fill="#1D1D1B"/>
<path d="M677.86 115.3V2.56982H739.34V19.8898H701.42V47.6398H734.02V65.0198H701.42V97.9798H740.6V115.3H677.86Z" fill="#1D1D1B"/>
<path d="M750.35 115.3V2.56982H773.91V96.5698H809.21V115.3H750.35Z" fill="#1D1D1B"/>
<path d="M983.93 2.56982V82.5398C983.93 99.3598 974.39 117.18 945.67 117.18C919.76 117.18 907.25 103.73 907.25 82.5398V2.56982H930.84V80.9398C930.84 94.8598 936.77 100.32 945.35 100.32C955.66 100.32 960.34 93.4398 960.34 80.9398V2.56982H983.92H983.93Z" fill="#1D1D1B"/>
<path d="M852.93 100.2C839.64 100.2 833.94 84.2 833.94 58.74C833.94 33.28 839.65 17.13 852.93 17.13C866.21 17.13 871.9 33.14 871.9 58.74C871.9 84.34 866.25 100.2 852.93 100.2ZM852.93 0C825.6 0 808.78 19.1 808.78 58.74C808.78 98.38 825.45 117.35 852.93 117.35C880.41 117.35 897.09 98.23 897.09 58.74C897.09 19.25 880.24 0 852.93 0Z" fill="#1D1D1B"/>
<path d="M427.47 220.75C426.77 220.84 422.36 225.37 424.11 218.49C424.39 217.42 424.54 216.01 424.68 214.48C425.46 211.22 425.97 208.61 425.97 207.83C425.97 206.71 425.66 205.9 425.06 205.42C424.51 204.99 423.78 204.88 422.89 205.1C421.43 205.42 421.38 205.84 421.05 208.55C421 209.01 420.93 209.55 420.85 210.18C420.38 211.91 419.79 214.12 418.82 215.88C416.35 220.4 412.24 222.5 410.47 222.47C410.32 222.47 410.19 222.45 410.08 222.4C409.54 222.23 408.99 220.92 409.01 218.62C409.01 216.6 409.42 213.82 410.51 210.44C411.28 207.96 412.2 206.52 413.1 205.71C413.86 205.02 413.93 202.46 412.51 202.44C410.93 202.44 410.18 202.49 408.78 204.55C407.97 205.75 407.17 207.25 406.36 209.02C405.31 211.32 404.87 213.63 404.87 215.76C404.87 220.8 407.24 224.85 410.13 225.83C410.6 226 411.07 226.08 411.52 226.08C413.66 226.08 415.71 224.51 417.52 222.53C417.31 223.03 417.09 223.54 416.86 224.06L416.09 225.02C414.39 227.14 412.92 228.98 411.27 231.25C410.56 232.22 409.24 233.87 407.72 235.78C405.12 239.04 402.17 242.73 400.81 244.82C398.5 248.4 397.92 250.66 397.84 251.92C397.79 252.63 397.95 255.51 399.64 256.51C400.02 256.74 400.44 256.85 400.89 256.85C401.6 256.85 402.39 256.57 403.26 256.02C410.29 251.62 417.83 235.61 420.15 229.81C420.64 228.58 421.17 227.06 421.74 225.27C422.25 225.94 422.92 226.35 423.75 226.44C425.62 226.64 429.41 222.37 429.41 222.37C429.41 222.37 428.59 220.52 427.48 220.75H427.47ZM415.23 232.46C412.56 238.18 404.51 251.74 402.39 251.74H402.37C402.27 251.74 402.09 251.42 402.08 250.59C402.04 248.24 408.4 240.1 415.23 232.46Z" fill="#C70C0F"/>
<path d="M625.69 176.28C626.41 176.36 627.03 176.4 627.56 176.4H627.7C629.98 176.4 630.73 175.58 630.92 174.2C630.94 174.09 630.97 173.99 630.97 173.89C630.92 172.2 628.82 171.01 625.94 170.35C624.62 170.03 623.46 169.77 622.44 169.77C621.17 169.77 620.18 170.24 619.81 171.65C619.75 171.9 619.71 172.17 619.71 172.41C619.73 174.51 622.12 175.93 625.69 176.3" fill="#C70C0F"/>
<path d="M666.07 180.17H663.05L673.37 169.53C674.31 168.57 674.99 167.98 675.41 167.76C675.83 167.55 676.3 167.44 676.83 167.44C677.71 167.44 678.44 167.71 678.99 168.25C679.54 168.79 679.82 169.47 679.82 170.28C679.82 170.81 679.66 171.29 679.34 171.74C679.02 172.18 678.32 172.73 677.27 173.38L666.09 180.18L666.07 180.17Z" fill="#C70C0F"/>
<path d="M739.08 203.91C739.08 186.99 724.99 184.12 720.92 184.12C714.66 184.12 711.67 188.1 711.61 188.85C711.61 188.91 711.64 188.98 711.67 189.02C711.67 189.02 712.9 190.93 714.75 193.1L714.86 193.2L714.97 193.13C718.85 190.97 721.78 190.02 724.09 190.03C729.88 190.06 731.64 195.82 731.66 200.89C731.66 202.98 731.35 204.92 730.91 206.25C729.57 210.44 726.06 218.93 719.61 218.88C718.85 218.88 718 218.76 717.04 218.49C711.57 216.28 710.13 211.71 710.13 207.64C710.13 204.37 711.09 201.34 711.66 200.05C712.07 199.11 712.26 198.43 712.26 197.89C712.26 196.67 711.26 196.3 710.05 195.71C709.24 195.3 708.48 195.07 707.84 195.07C706.96 195.07 706.28 195.47 706.04 196.21C699.72 214.06 691.62 217.42 688.77 217.88C686.22 216.94 687.29 213.03 687.02 210.15C686.72 207.07 688.69 199.85 689.48 196.47C690.28 193.1 699.17 171.57 701.23 167.03C703.29 162.48 706.04 153.8 705.81 152.14C705.58 150.47 702.79 148.87 701 148.28C699.22 147.68 698.89 148.29 698.24 149.8C697.6 151.31 697.88 150.28 697.27 151.92C696.65 153.57 687.86 176.92 686.18 181.99C685.59 183.74 684.6 186.67 683.58 190.15C680.59 188.11 676.41 187.62 673.28 187.62C671.45 187.62 669.7 187.76 668.28 187.85C663.95 185.1 660.25 184.11 657.2 184.11C651.07 184.15 648.09 188.1 648.02 188.84C648.02 188.9 648.05 188.98 648.08 189.01C648.08 189.01 649.3 190.92 651.16 193.1L651.26 193.2L651.38 193.13C655.12 190.97 658.1 190.02 660.43 190.03C666.22 190.06 667.99 195.82 668.01 200.89C668.01 202.98 667.7 204.92 667.26 206.25C665.92 210.44 662.41 218.93 655.89 218.88C655.12 218.88 654.31 218.76 653.45 218.49C647.99 216.28 646.56 211.71 646.55 207.64C646.55 204.37 647.51 201.34 648.08 200.05C648.5 199.11 648.68 198.43 648.68 197.9C648.68 196.67 647.68 196.31 646.47 195.71C645.66 195.29 644.9 195.08 644.25 195.08C643.39 195.08 642.69 195.48 642.45 196.22C639.59 204.22 636.38 209.31 633.46 212.53C632.14 213.65 630.52 215.08 628.29 216.48C626.46 217.57 624.99 218.01 623.69 218.01C620.86 217.99 619.31 215.49 618.51 213.27C618.34 212.81 618.25 212.19 618.25 211.52C618.23 207.74 620.56 201.47 621.39 199.51C621.66 198.84 621.84 198 621.84 197.1C621.84 194.69 620.68 191.77 617.41 190.77C616.99 190.59 616.61 190.52 616.28 190.52C612.75 190.66 613.04 196.48 612.52 201.19C611.96 206.35 604.62 218.71 596.67 219.05C594.94 219.12 594.49 214.32 594.5 212.07C594.5 208.05 595.46 201.7 596.67 196.05C598.59 187.2 606.57 161.27 607.46 157.05C607.58 156.29 607.64 155.51 607.64 154.72C607.62 150.68 606.07 145.94 604.3 145.27C604.02 145.17 603.71 145.12 603.43 145.12C600.83 145.21 600.12 149.42 597.25 158.72C594.12 169.01 592.08 181.13 591.47 187.4C590.85 193.73 589.39 197.13 584.95 205.19C580.9 212.57 575.03 218.61 572.08 218.55C571.85 218.55 571.64 218.52 571.45 218.43C570.64 218.15 569.81 215.87 569.83 212.26C569.83 208.95 570.47 204.41 572.16 198.87C574.53 191.39 577.76 189.64 579.86 189.67C580.84 189.67 581.6 190.04 581.92 190.36C582.23 190.73 582.58 190.87 582.91 190.87C583.73 190.85 584.38 190.07 584.38 189.41C584.38 189.19 584.31 188.97 584.13 188.82C581.41 185.57 578.95 184.03 576.63 184C572.49 184.03 569.11 188.67 565.5 196.57C564.46 198.86 563.82 201.14 563.45 203.37C561.79 209.89 559.45 217.62 557.13 217.53C551.09 217.48 550.31 204.95 550.34 197.72V196.2C550.34 190.57 549.07 188.86 546.8 188.85C546.4 188.84 545.97 188.89 545.52 188.99C543.92 189.27 543.51 190.7 543.53 191.97C543.53 193.25 543.91 194.57 543.91 194.87C542.65 199.91 541.41 203.93 540.22 207.14C536.56 216.91 533.44 219.19 531.84 219.15C531.72 219.15 531.61 219.14 531.51 219.1C526.7 218.03 526.22 212.52 526.22 205.21C526.22 203.56 526.23 201.85 526.23 200.05C526.23 199.22 526.23 198.36 526.22 197.52C526.09 189.38 520.44 185.47 510.57 188.55C510.59 188.28 510.62 188.03 510.64 187.82C511.82 175.52 511.78 172.62 511.78 166.46C511.79 153.56 509.89 151.28 508.91 148.69C508 145.38 506.07 143.77 506.05 143.77C503.64 141.88 501.89 141.12 500.53 141.12C497.69 141.12 496.68 144.16 495.64 146.04C486.88 162.93 483.66 175.36 482.03 179.81C478.75 191.24 473.14 201.45 469.37 209.41C465.65 217.48 465.78 219.77 465.55 222.21C465.53 222.67 465.53 223.07 465.53 223.47C465.53 230.13 468.02 231.63 470.28 231.63C470.3 231.63 470.32 231.63 470.34 231.63C474.89 231.33 479.37 208.96 479.43 208.94C479.43 208.94 495 201.89 502.07 198.56V198.58C502.08 201.82 502.95 217.83 507.66 228.69C507.67 228.71 510.12 234.19 513.36 236.24C513.67 236.46 514 236.57 514.33 236.57C515.67 236.54 516.85 235.03 516.87 233.42C516.87 232.86 516.71 232.29 516.37 231.76C510.59 221.77 509.61 211.23 509.61 205.31C509.61 203.51 509.86 198.91 510.12 194.77C511.16 194.43 512.52 194.07 514.66 193.56C520.86 193.79 519.99 195.88 520.17 200.66C520.39 209.47 520.87 212.9 520.87 212.9C521.98 220.25 529.5 223.99 534.28 224.03C535.51 224.03 536.56 223.77 537.3 223.27C538.41 222.64 540.31 220.12 541.91 217.68C543.51 215.1 544.86 212.73 545.03 212.4C545.18 212.12 545.29 212.11 545.37 212.11C545.4 212.09 545.43 212.11 545.45 212.11C545.48 212.12 545.49 212.13 545.49 212.13C548.7 219.5 553.08 223.58 557.4 223.59C560.28 223.59 563.01 221.74 565.19 217.91L565.15 217.4C566.72 220.74 569 223.17 571.5 224.05C572.27 224.33 573.1 224.45 573.86 224.45C579.5 224.45 584.76 217.79 588.6 212.38C588.72 212.81 588.91 213.63 588.91 214.97C588.91 215.33 588.91 215.71 588.87 216.23C588.85 216.52 588.85 216.81 588.85 217.08C588.87 221.76 590.84 225.32 592.81 225.9C594.79 226.48 604.18 225.04 613.37 216.36C613.6 215.87 613.79 215.75 613.89 215.76C614 215.76 614.19 215.91 614.34 216.42C618.13 222.63 621.32 224.26 624.27 224.26C624.97 224.26 625.65 224.15 626.31 224.01C633.66 223.9 639.16 216.81 639.78 215.92C640.13 215.45 640.57 215.23 641.05 215.24C641.53 215.24 642.01 215.48 642.4 216.23C647.12 222.49 652.64 225.41 657.86 225.43C662.73 225.43 667.26 222.95 670.59 218.36C674.21 213.29 675.4 208.31 675.4 203.9C675.4 199.83 674.38 196.28 673.27 193.73L673.45 193.41C679.35 193.62 680.88 195.53 681.17 199.85C680.36 204.08 679.88 208.38 680.2 212.09C681.08 222.45 684.48 224.55 690.51 225.11C695.1 225.54 698.46 221.41 702.21 217.57L702.15 217.48C702.84 216.72 703.28 216.13 703.43 215.91C703.79 215.44 704.22 215.22 704.67 215.23C705.13 215.23 705.6 215.47 706 216.22C710.71 222.48 716.24 225.4 721.57 225.42C726.4 225.42 730.93 222.94 734.26 218.36C737.87 213.29 739.07 208.31 739.07 203.9L739.08 203.91ZM502.58 169.12C502.53 176.68 502.36 185.37 502.22 191.35L478.95 201.87C482.03 192.6 489.26 177.19 501.85 157.68C501.99 157.41 502.17 157.33 502.23 157.33C502.26 157.33 502.36 157.36 502.38 157.76C502.38 158.02 502.62 162.65 502.58 169.12Z" fill="#C70C0F"/>
<path d="M822.31 189.39C820.46 189.39 818.59 189.53 817.18 189.62C812.84 186.87 809.15 185.88 806.17 185.88C800.04 185.92 797.05 189.87 796.99 190.68C796.99 190.74 797.02 190.81 797.06 190.85C797.06 190.85 798.29 192.69 800.13 194.86L800.23 194.95L800.34 194.88C804.09 192.72 807.02 191.84 809.33 191.85C815.12 191.89 816.88 197.57 816.9 202.65C816.9 204.73 816.59 206.67 816.15 208C814.81 212.18 811.3 220.67 804.86 220.63C804.09 220.63 803.27 220.51 802.42 220.24C796.95 218.03 795.52 213.46 795.51 209.39C795.51 206.13 796.46 203.1 797.04 201.81C797.46 200.88 797.63 200.2 797.63 199.66C797.63 198.43 796.64 198.06 795.41 197.47C794.62 197.05 793.85 196.84 793.2 196.84C792.34 196.84 791.65 197.24 791.4 197.98C786.37 212.02 780.31 217.08 776.55 218.83C775.06 219.18 774.09 218.1 775.47 212.67C776.06 210.4 776.29 207.26 776.61 203.91C777.59 199.62 778.22 196.32 778.22 195.24C778.22 193.73 777.51 192.31 776.28 191.34C775.03 190.36 773.42 189.98 771.97 190.33C770.24 190.72 770.28 191.5 770.37 193.37C770.41 194.16 770.46 195.28 770.43 196.8C769.45 199.29 768.04 202.03 765.99 205.8C761.94 213.19 756.07 219.22 753.18 219.16C752.94 219.16 752.73 219.13 752.55 219.05C751.66 218.77 750.76 216.62 750.79 212.87C750.79 209.57 751.46 205.02 753.25 199.49C755.56 192.01 758.78 190.26 760.88 190.29C761.85 190.29 762.63 190.73 762.93 191.04C763.24 191.35 763.58 191.49 763.92 191.49C764.72 191.47 765.39 190.76 765.4 190.03C765.4 189.82 765.32 189.59 765.14 189.44C762.42 186.19 759.97 184.64 757.64 184.62C753.57 184.64 750.05 189.28 746.45 197.18C744.73 200.94 744.01 204.71 744.01 208.19C744.02 216.42 747.89 223.05 752.61 224.65C753.37 224.93 754.14 225.06 754.89 225.06C758.62 225.06 762.19 222.14 765.28 218.6C764.84 219.68 764.37 220.78 763.87 221.92L762.7 223.38C759.88 226.89 757.45 229.92 754.72 233.69C753.56 235.28 751.41 237.97 748.92 241.08C744.66 246.41 739.84 252.45 737.62 255.86C733.69 261.96 732.91 265.67 732.81 267.33C732.73 268.46 732.97 272.99 735.6 274.56C736.17 274.9 736.81 275.07 737.49 275.07C738.59 275.07 739.83 274.63 741.21 273.76C752.64 266.6 764.93 240.5 768.7 231.05C769.52 229 770.41 226.45 771.36 223.44C772.21 224.71 773.39 225.5 774.85 225.65C774.88 225.65 774.92 225.65 774.95 225.65L774.98 225.77C782.44 225.79 788.17 218.56 788.81 217.79C789.15 217.33 789.59 217.11 790.03 217.12C790.49 217.12 790.97 217.36 791.36 217.97C796.08 224.23 801.6 227.15 806.8 227.17C811.63 227.18 816.16 224.69 819.51 220.11C823.23 215.03 824.42 210.06 824.42 205.65C824.42 201.58 823.4 198.03 822.29 195.48L822.47 195.16C828.67 195.38 827.8 197.47 827.97 202.25L833.94 199.12C833.82 190.85 827.65 189.36 822.27 189.36L822.31 189.39ZM761.92 234.1C760.44 237.57 756.97 244.23 752.88 251.03C745.61 263.12 741.45 267.42 739.96 267.42H739.94C739.29 267.4 739.19 265.9 739.18 265.25C739.07 261.48 747.13 250.45 761.92 234.1Z" fill="#C70C0F"/>
<path d="M232.93 186.04C232.16 185.77 231.4 185.64 230.65 185.64C225.01 185.64 219.77 192.29 215.94 197.55C215.81 197.12 215.62 196.29 215.62 194.95C215.62 194.6 215.63 194.22 215.66 193.84C215.68 193.54 215.68 193.25 215.68 192.98C215.66 188.31 213.78 184.76 211.79 184.18C211.69 184.14 211.57 184.12 211.47 184.12C209.26 184.18 206.44 189.36 205.96 190C205.76 190.26 205.62 190.3 205.56 190.3C205.49 190.3 205.44 190.25 205.44 190.25C205.56 188.28 205.6 186.29 205.6 184.37C205.58 152.5 193.21 143.02 181.8 142.94C173.68 142.92 166.14 147.65 163.93 152.46C163.48 153.19 163.28 153.74 163.28 154.24C163.3 155.36 164.37 155.71 165.22 156.22C166.5 157.16 167.42 157.5 168.12 157.51C169.49 157.49 169.8 156.16 169.99 155.58C170.17 154.96 177.09 148.03 183.73 148.09C185.02 148.1 186.32 148.36 187.56 148.97C195.72 153 198.62 164.52 198.62 176.39C198.62 186.77 196.41 197.41 193.69 203.51C188.81 214.46 180.07 221.45 172.42 221.41C168.89 221.4 165.58 219.91 162.96 216.59C158.39 210.85 156.79 204.63 156.79 198.72C156.79 187.25 162.83 176.94 164.99 173.93C167.53 170.31 170.13 168.13 170.18 166.39C170.18 165.9 169.95 165.45 169.49 165.12C168.8 164.55 167.84 164.25 166.72 164.25C164.4 164.25 161.45 165.56 159.23 168.81C153.56 176.82 149.93 187.53 149.93 197.63C149.92 209.24 154.73 220.06 166.73 224.94C170.24 226.36 173.45 226.97 176.36 226.99C191.33 227.02 198.55 211.11 200.93 206.03C203.56 200.28 207.14 193.82 208.92 193.92C209.02 193.92 209.11 193.93 209.18 193.96C209.73 194.14 210.1 195.63 210.08 197.88C210.08 201.89 209.12 208.23 207.92 213.86C206.01 222.63 198.04 248.46 197.22 252.67C197.1 253.36 197.04 254.13 197.04 254.93C197.06 258.96 198.53 263.69 200.3 264.36C200.59 264.46 200.89 264.51 201.16 264.51C203.76 264.42 204.46 260.22 207.34 251C210.47 240.72 212.5 228.69 213.11 222.42C213.73 216.17 215.13 212.77 219.55 204.73C223.59 197.35 229.45 191.46 232.33 191.52C232.56 191.52 232.77 191.55 232.96 191.64C233.77 191.91 234.6 194.06 234.58 197.68C234.58 200.98 233.95 205.51 232.25 211.04C229.95 218.51 226.73 220.19 224.63 220.16C223.66 220.16 222.89 219.79 222.58 219.47C222.28 219.17 221.93 219.02 221.6 219.02C220.79 219.04 220.13 219.75 220.12 220.41C220.12 220.62 220.2 220.85 220.37 221C223.09 224.25 225.54 225.79 227.87 225.81C231.93 225.79 235.3 221.15 238.9 213.33C240.62 209.58 241.34 205.81 241.34 202.34C241.33 194.25 237.46 187.63 232.89 186.04" fill="#C70C0F"/>
<path d="M293.62 210.95C291.58 210.99 289.54 214.07 284.88 216.86C283.07 217.95 281.57 218.37 280.36 218.36C277.51 218.36 275.98 216.01 275.17 213.79C275.02 213.31 274.91 212.71 274.91 212.02C274.91 208.25 277.22 201.98 278.05 200.04C278.33 199.37 278.49 198.53 278.49 197.62C278.49 195.23 277.34 192.34 274.08 191.31C273.66 191.18 273.26 191.11 272.93 191.11C269.43 191.2 269.72 197.02 269.18 201.71C268.65 206.85 265.41 211.19 263.07 214.31C259.15 218.28 256.4 219.74 254.6 219.74C251.28 219.71 250.57 214.72 250.55 210.18C250.55 208.92 250.61 207.73 250.68 206.72C251.03 200.07 256.07 185.75 256.56 184.61L275.04 183.48C276.43 183.48 276.82 182.45 276.82 181.49C276.82 180.61 276.54 179.64 276.56 179.39C276.42 178.41 274.15 177.97 272.2 177.9C270.29 177.9 265.15 178.55 258.37 179.31C259.08 177.69 261.37 171 262.23 168.45C262.39 167.98 262.45 167.57 262.45 167.19C262.43 165.3 260.61 164.76 259.44 164.06C259.18 163.9 258.89 163.85 258.64 163.85C257.24 163.85 256.11 165.56 255.69 166.92C255.69 166.95 252.74 175.94 249.54 184.96C246.36 193.98 244.74 199.78 244.62 208.33C246.03 221.25 250.87 225.42 256.04 225.42C262 225.42 268.21 220.04 270.08 216.73C270.31 216.36 270.5 216.26 270.6 216.27C270.71 216.27 270.89 216.41 271.06 216.78C274.83 223 278.02 224.62 280.89 224.62C282.72 224.62 284.38 224 286.01 223.57C289.71 222.5 295.9 216.92 295.94 213.42C295.94 212.86 295.79 212.35 295.43 211.94C294.85 211.26 294.25 210.94 293.64 210.94" fill="#C70C0F"/>
<path d="M272.52 173.53C273.24 173.6 273.84 173.64 274.39 173.64H274.53C276.79 173.64 277.55 172.81 277.76 171.44C277.78 171.33 277.78 171.22 277.78 171.13C277.74 169.43 275.65 168.25 272.76 167.6C271.46 167.28 270.3 167.01 269.33 167.01C268.07 167 267.09 167.49 266.74 168.89C266.66 169.14 266.62 169.4 266.62 169.65C266.64 171.75 269.02 173.17 272.52 173.53Z" fill="#C70C0F"/>
<path d="M191.08 138.33H187.42L199.92 125.44C201.05 124.27 201.88 123.56 202.39 123.3C202.9 123.04 203.46 122.91 204.1 122.91C205.17 122.91 206.04 123.24 206.71 123.89C207.38 124.54 207.71 125.37 207.71 126.35C207.71 126.99 207.52 127.58 207.13 128.12C206.74 128.66 205.9 129.32 204.62 130.1L191.08 138.33Z" fill="#C70C0F"/>
<path d="M372.07 198.98C371.95 190.71 365.78 189.22 360.4 189.22C358.55 189.22 356.68 189.36 355.27 189.45C350.93 186.7 347.24 185.71 344.26 185.71C338.13 185.75 335.14 189.69 335.08 190.51C335.08 190.57 335.11 190.64 335.15 190.68C335.15 190.68 336.38 192.52 338.22 194.69L338.32 194.78L338.43 194.71C342.18 192.55 345.11 191.67 347.42 191.68C353.21 191.72 354.98 197.4 354.99 202.48C354.99 204.56 354.68 206.5 354.24 207.84C352.9 212.02 349.39 220.51 342.95 220.47C342.18 220.47 341.36 220.35 340.51 220.08C335.04 217.87 333.61 213.3 333.6 209.23C333.6 205.97 334.56 202.94 335.13 201.65C335.55 200.72 335.73 200.04 335.73 199.5C335.73 198.27 334.74 197.9 333.51 197.31C332.71 196.89 331.95 196.68 331.3 196.68C330.44 196.68 329.75 197.08 329.5 197.82C322.41 217.6 313.28 219.57 311.41 219.55L311.43 219.6C309.67 219.64 307.36 218.95 306.68 218.55C305.28 217.69 301.12 214.44 301.12 207.45C301.12 205.62 301.39 203.52 302.08 201.15C304.09 194.37 307.09 192.2 309.92 192.2C312.38 192.23 314.79 193.91 316.34 195.86C316.64 196.09 316.93 196.18 317.2 196.18C318.3 196.18 319.26 194.9 319.27 193.52C319.27 192.84 319 192.1 318.38 191.51C314.85 187.52 311.53 185.95 308.6 185.93C303.27 185.93 299.34 190.91 297.51 195.31C296.62 197.7 295.28 201.45 295.28 205.86C295.28 210.27 296.73 215.74 301.6 220.82C305.05 224.42 308.22 225.9 311.2 225.92C311.51 225.92 311.78 225.89 312.07 225.86V225.92C313.16 225.92 314.18 225.69 315.18 225.43C321.6 224.31 326.34 218.35 326.92 217.65C327.26 217.19 327.7 216.97 328.14 216.98C328.6 216.98 329.08 217.22 329.47 217.83C334.19 224.09 339.71 227.01 344.91 227.03C349.74 227.04 354.27 224.55 357.62 219.97C361.34 214.89 362.53 209.92 362.53 205.51C362.53 201.44 361.51 197.89 360.4 195.34L360.58 195.02C366.78 195.24 365.91 197.33 366.08 202.11L372.05 198.98H372.07Z" fill="#C70C0F"/>
</g>
<defs>
<clipPath id="clip0_119_255">
<rect width="983.93" height="275.09" fill="white"/>
</clipPath>
</defs>
</svg>
